# xmcd
#
# Track frame offsets: 
#        150
#        33922
#        69062
#        91720
#        96415
#        126710
#        155530
#        177765
#        199210
#        222680
#
# Disc length: 3042 seconds
#
# Revision: 21
# Processed by: cddbd v1.5.2PL0 Copyright (c) Steve Scherf et al.
# Submitted via: ExactAudioCopy v1.0b3
#
DISCID=8c0be00a
DTITLE=Nils Petter Molvær - Solid Ether
DYEAR=2000
DGENRE=NuJazz
TTITLE0=Dead Indeed
TTITLE1=Vilderness 1
TTITLE2=Kakonita
TTITLE3=Merciful 1
TTITLE4=Ligotage
TTITLE5=Trip
TTITLE6=Vilderness 2
TTITLE7=Tragamar
TTITLE8=Solid Ether
TTITLE9=Merciful 2
EXTD=YEAR: 2000
EXTT0=
EXTT1=
EXTT2=
EXTT3=
EXTT4=
EXTT5=
EXTT6=
EXTT7=
EXTT8=
EXTT9=
PLAYORDER=
